# xmcd
#
# Track frame offsets:
#	150
#	15037
#	31558
#	47233
#	62487
#	78886
#	100842
#	123510
#	137498
#	155707
#
# Disc length: 2280 seconds
#
# Revision: 2
# Processed by: cddbd v1.4PL0 Copyright (c) Steve Scherf et al.
# Submitted via: dBpowerAMP V4.0
#
DISCID=6b08e60a
DTITLE=Ponder, Sykes, and Wright - Ponder, Sykes, and Wright
DYEAR=1997
DGENRE=Gospel
TTITLE0=Higher Ground
TTITLE1=Only Child
TTITLE2=We're On A Roll
TTITLE3=You Were On His Mind
TTITLE4=Only His Love Will Remain
TTITLE5=Every Time I Turn Around
TTITLE6=I Know Where There's Water
TTITLE7=When Love Comes Knockin'
TTITLE8=He Still Speaks
TTITLE9=Come And Go With Me
EXTD=
EXTT0=
EXTT1=
EXTT2=
EXTT3=
EXTT4=
EXTT5=
EXTT6=
EXTT7=
EXTT8=
EXTT9=
PLAYORDER=
